<svg xmlns="http://www.w3.org/2000/svg" viewBox="0 0 140 100"><path d="M31.435 7.612c-.074-.026-.28-.134-.356-.158a10.38 10.38 0 00-1.937-.42c-.17-.013-.337-.022-.504-.029-.798-.03-1.438.079-2.187.167-.318.038-.764.01-1.075.066-.287.053-.57.113-.851.18-1.318.318-2.586.683-3.813 1.26-1.724.81-3.67 2.16-5.157 2.903-.415.207-.71.559-.998.915-.285.353-.439.786-.586 1.21-1.015 2.905-2.389 5.706-1.85 8.788.042.236.094.474.159.713.064.237.157.461.262.686.1.213.21.427.318.651.125.26.208.57.359.823.244.41.312.664.614 1.043.396.496 1.045 1.102 1.511 1.506.2.173.417.326.636.467.17.11.34.213.506.315.101.062.165.154.269.21.479.266 1.012.449 1.55.599.204.056.3.07.502.119.224.054.512.198.741.236.66.11 1.334.153 2.005.133.203-.006.596-.11.798-.128.516-.045.836-.033 1.333-.15.428-.1.864-.316 1.268-.467 1.6-.597 2.387-1.497 3.745-2.628l.577-.66s.342-.355.654-.722c.223-.264.475-.766.475-.766s.381-.374.46-.542c.149-.316.526-.724.836-1.155.235-.327.343-.645.528-.948.21-.346.495-.78.777-1.245l.193-.325a5.16 5.16 0 00.272-.496s.126-.287.226-.496c.146-.307.254-.608.358-1.012.054-.21.08-.46.089-.61.02-.33.04-.475.093-.681.061-.24.218-1.155.218-1.155l-.024.03a17.21 17.21 0 00.481-2.733c.038-.435.12-.967.079-1.35-.24-2.198-1.605-3.453-3.554-4.144m108.464 63.964c-.098-.272-.425-.606-.845-.842-.266-.15-.589-.244-.852-.316-.293-.08-.757-.003-.914.078-.376.194-.55.29-.935.477-.1.049-.222.185-.324.234-.185.088-.352.089-.538.176-.185.086-.386.212-.572.295-.088.04-.16.038-.248.077a41.126 41.126 0 01-.475.209c-.677.292-1.363.574-2.056.84a50.54 50.54 0 01-4.96 1.62c-.149.04-.246.106-.396.145-.067.017-.186.008-.253.025l-.271.068a42.4 42.4 0 01-3.594.727c-.184.029-.282.101-.465.127-.183.026-.45.005-.632.028-.35.045-.7.084-1.05.118-1.645.161-3.044-.214-4.204-.949-.98-.622-1.682-1.214-2.67-2.148-.227-.213-.545-.84-.769-1.074-.162-.17-.269-.396-.446-.563-.126-.118-.124-.187-.183-.283-.462-.747-.85-1.598-1.426-2.182a2.657 2.657 0 00-.375-.317 5.63 5.63 0 01-.328-.247c-.686-.553-1.299-1.243-2.16-1.499a13.371 13.371 0 00-.605-.162 10.167 10.167 0 00-2.065-.282 8.362 8.362 0 00-2.327.256 8.601 8.601 0 00-2.244.936c-.336.196-.67.419-1 .668a20.79 20.79 0 01-.815.566c-1.454.967-4.196 2.623-4.132 1.532.01-.179.632-1.508 1.235-2.58.172-.306.195-.612.322-.837.148-.261.205-.484.23-.537.537-1.109.685-2.102.686-3.382 0-.322-.04-.64-.13-.947a2.928 2.928 0 00-.459-.922 6.282 6.282 0 01-.228-.337c-.483-.76-.87-1.566-2.033-1.33-.41.083-1.003.146-1.318.236a4.968 4.968 0 00-.721.26c-.21.096-.39.206-.546.335-.07.059-.153.07-.214.135-.051.058-.157.144-.202.209-.106.152-.246.342-.318.54a3.293 3.293 0 00-.074.226 4.7 4.7 0 00-.067.266c-.044.202-.046.382-.06.572-.006.09.01.157-.003.246-.011.07.012.11.008.187-.007.12.03.198.063.298.062.19.253.338.27.458.027.183.057.517.035.7-.006.064-.002.43-.01.494-.095.84-.021.88-.2 1.706-.215.988-1.147 3.089-2.052 4.91-.234.47-.445.92-.608 1.322-.18.442-.3.827-.333 1.12a7.052 7.052 0 00-.002 1.535 6.59 6.59 0 00.933 2.767c1.06 1.704 2.959 1.735 4.683 1.234a9 9 0 00.753-.255c.15-.058.318-.14.5-.243.384-.218.833-.526 1.313-.883 1.733-1.288 3.881-3.218 4.883-3.835 1.264-.781 2.66-1.316 4.15-1.326.456-.003.932.298 1.364.528 1.46.78 1.989 3.09 3.101 4.277l.787.776c.39.367.741.69 1.195 1.074 2.68 2.267 4.618 2.258 8.003 1.934 2.262-.217 4.705-1.003 6.928-1.544.81-.196 1.577-.493 2.324-.84l.174-.083a25.179 25.179 0 001.074-.546l.129-.07c.296-.158.591-.32.887-.483a64.22 64.22 0 011.185-.64l.942-.493.339-.178a498.386 498.386 0 003.543-1.877c.05-.028.101-.054.151-.081.481-.258.928-.596 1.44-.775.744-.26 1.445-.626 1.077-1.66M81.268 6.512c-.145-.143-.311-.301-.449-.471-.377-.469-.801-.98-1.283-1.333-.234-.172-.259-.276-.487-.383-1.486-.7-2.939-.18-4.194.724-.354.254-.275.211-.73.64-.208.196-.574.666-.786.848-.444.382-.318.365-.735.659-.202.141-.385.364-.573.515a11.73 11.73 0 00-.63.543 16.257 16.257 0 00-.636.617c-.202.204-.399.414-.596.626-.208.226-.27.242-.479.474-.119.132-.462.378-.583.512-.401.445-.644.396-1.097.074-.695-.495-1.144-1.195-1.993-1.605a2.989 2.989 0 00-.349-.142c-2.059-.698-4.474.715-4.195 3.141.02.177.106.347.215.513.263.406.658.788.557 1.192-.094.38-.046.565-.165.951-.546 1.785-1.19 3.795-2.14 5.367a18.3 18.3 0 01-.464.73c-1.38 2.056-2.026 2.33-2.596 2.686-.186.117-.21.359-.342.574-.592.964-.535 1.588-.538 2.762-.002 1.409.686 1.922 1.704 2.71 1.012.782 2.834.805 3.484-.276.295-.493.64-1.177.949-1.661 1.197-1.88 2.447-3.501 3.821-5.256.405-.517.817-1.03 1.235-1.535.122-.148.359-.53.481-.676.49-.583.573-.916 1.079-1.484a87.943 87.943 0 015.197-5.356c.212-.2.147-.225.36-.423.221-.207.187-.243.41-.447.104-.095.242-.306.345-.4.123-.112.14-.153.263-.264.09-.08.218-.242.307-.322.1-.09.11-.1.206-.183.903-.79 1.559-1.232 2.522-.879.11.04.282.08.4.142.122.063.196.104.328.19.38.25.73.395 1.057.384.161-.005.316-.038.462-.094.648-.25 1.07-.976 1.261-1.781.11-.46.179-.936.085-1.388-.099-.473-.065-.378-.688-1.215M25.55 55.143c-.662.35-1.252.631-1.595.6-.534-.05-.842-1.099-.965-1.448-1.514-4.305-8.032-3.843-10.9-1.725-1.328.98-2.53 2.195-3.596 3.51-.206.256-.407.514-.602.775-.213.283-.415.574-.607.873-.622.968-1.302 2.784-1.77 3.852-.174.397-.49.839-.651 1.24-.806 2-1.318 3.349-.67 5.225.091.263.249.452.394.737.114.223.187.517.304.72.682 1.181 1.436 2.034 2.474 2.658.405.244.853.452 1.357.631.245.088.631.192.885.277.42.14.714.254 1.149.366 1.305.334 2.658.489 3.94.135.032-.008.134-.036.206.043.034.037.175.084.083.405-.358 1.254-.498 1.62-.968 2.877-.71 1.898-1.707 5.071-2.812 6.732-2.466 3.706-1.751 3.151-4.178 6.023-.396.47-1.309 1.551-2.176 2.452-.067.07-.173.306-.24.375-.274.284-.33.254-.591.517-.037.037-.254.22-.292.255-.397.355-.722.76-1.006 1.012-.102.092-.197.218-.278.283-.678.543-1.183.958-1.567 1.394-.115.13-.22.256-.32.378-.081.098-.073.138-.146.23-.057.072-.189.152-.243.22-.037.046-.082.164-.113.213-.067.107-.045.155-.053.274a.82.82 0 00.004.175c.029.108.042.19.063.31a2.79 2.79 0 00.575 1.17c.028.035.093.05.127.077a.752.752 0 01.267.329c.084.188.316.262.5.388.115.079.23.146.345.204.37.184 1.307.043 1.678.05.101.001.202-.002.303-.01.418-.036.724-.071 1.142-.227.078-.03.245-.025.323-.056.153-.063.327-.1.48-.169.12-.053.24-.069.359-.124.483-.22.962-.444 1.439-.6.312-.103.622-.443.973-.714l-.005.01.048-.042c.172-.134.346-.28.523-.443l.083-.066c.452-.35 1.045-.968 1.045-.968s.367-.357.655-.726c.29-.372.452-.549.452-.549s.264-.293.385-.49c.124-.203.231-.393.231-.393l.212-.284c.063-.148.106-.203.164-.285.17-.202.477-.75.596-.902 1.62-2.068 1.437-2.172 2.536-4.149.666-1.197.718-1.33 1.268-2.203l.062-.062.607-1.281s.674-.944.76-1.31c.086-.365.417-.878.417-.878s.336-.46.403-.65c.125-.357.488-.828.765-1.326.21-.38.294-.735.457-1.082.183-.396.435-.896.684-1.43l.168-.371c.165-.354.25-.587.25-.587s.117-.25.201-.487c.124-.347.326-.595.427-1.036.047-.202.119-.404.186-.59.013-.036.223-.623.223-.626.772-1.87 1.59-2.613 2.795-5.469.899-2.13 2.361-7.015 2.61-9.02.092-.74.147-2.933.194-3.705.026-.423.058-.883-.21-1.222-.538-.68-1.427-.478-1.955-.424-.106.022-.225.111-.267.134zm-11.883 9.24a3.94 3.94 0 01-.468 1.501c-.253.44-.595.77-1.009.877a.558.558 0 01-.116.018c-.343.021-1.003-.377-1.213-.698-.114-.172-.143-.235-.22-.383-.06-.115-.022-.278-.064-.391-.446-1.216.332-2.321 1.413-2.974.318-.192 1.013-.142 1.243.11.059.065.112.137.158.215.2.33.294.773.3 1.246.002.157-.006.318-.024.48zm58.955 10.155a3.458 3.458 0 00-.57.014c-.191.02-.343.148-.519.19-.057.013-.087.036-.143.05-.049.013-.126.016-.175.028l-.205.055a20.885 20.885 0 00-1.202.365 33.11 33.11 0 00-.649.225c-1.545.553-3.062 1.207-4.63 1.684-1.594.484-3.026 1.238-4.729 1.302l-.066.003c-1.52.049-3.189-.179-4.663-.526-1.708-.402-2.339-.749-3.554-1.998-.948-.974-.32-1.686.699-2.29.175-.104.329-.205.91-.543l.268-.15s.063 0 .19-.095c.16-.12.359-.212.554-.328.185-.089 4.31-2.476 4.736-2.784.324-.233.525-.498.794-.725.306-.259.379-.117.79-.466.08-.067.214-.185.285-.244.272-.231.432-.393.432-.393s.289-.327.448-.492c.234-.243.328-.382.551-.728.116-.18.283-.376.343-.512.087-.195.186-.303.262-.454.125-.197.162-.451.244-.655a.27.27 0 01.014-.036l.012-.021c.531-1.087.633-2.152.043-3.117-.613-1.002-1.81-2.675-2.507-3.604-1.37-1.819-3.136-1.247-5.097-1.053-5.015.496-8.695 5.297-10.682 9.479-.871 1.832-2.02 4.009-1.772 6.096.349 2.962 2.321 5.4 4.64 7.156 1.114.844 2.51 1.839 3.845 2.29 2.276.766 4.592.885 6.893.592v.005l.017-.007c.386-.05.772-.11 1.157-.182l1.228-.125s.577-.044.941-.205c.314-.14.84-.26.84-.26s.42-.176.583-.262c.307-.161.958-.153 1.46-.309.383-.118.658-.306.986-.436.373-.147.858-.32 1.36-.52.097-.04.262-.108.348-.142.333-.133.411-.171.411-.171s.368-.15.572-.256c.3-.156.569-.391.892-.648.162-.129.455-.338.65-.506.867-.433 1.715-.87 2.539-1.293.866-.445 1.885-1.253 1.532-2.156-.197-.506-.74-.805-1.306-.842m-21.749-6.974c-.07-.128-.107-.344-.059-.611.017-.092.082-.2.107-.299.063-.242.15-.495.238-.722.048-.12.07-.244.115-.344.046-.1.087-.213.126-.28a.664.664 0 01.097-.138c.117-.112.218-.255.337-.364.086-.08.187-.224.274-.302.23-.205.359-.395.596-.592.32-.266.423-.424.755-.677.29-.223.705-.406 1.001-.62.057-.041.326-.145.383-.186a.945.945 0 01.314-.144c.445-.075.586-.033.857.128.626.372 1.007 1.34.596 1.816-1.028 1.192-2.403 1.741-3.652 2.7-.247.19-1.42.829-1.75.81-.175-.012-.281-.076-.335-.175M109.781 53a2.502 2.502 0 01-.74-.11 2.87 2.87 0 01-.797-.388l-.183-.126-.184-.125a11.266 11.266 0 01-.583-.433 4.012 4.012 0 01-.559-.537 2.92 2.92 0 01-.4-.593c-.104-.207-.265-.276-.308-.496a2.552 2.552 0 01-.045-.571c.006-.197.033-.401.082-.616a5.04 5.04 0 01.148-.515 13.132 13.132 0 01.26-.681l.092-.205c.044-.098.09-.196.128-.288a3.12 3.12 0 00.105-.281 1.183 1.183 0 01.059-.396c.045-.152.116-.328.217-.54.055-.139.117-.287.183-.44.065-.153.135-.311.205-.469l.068-.153.168-.38a23.7 23.7 0 00.341-.826c.057-.15.111-.302.162-.456.058-.18.114-.343.166-.493.053-.151.104-.29.154-.427.069-.19.218-.301.285-.5.068-.199.053-.486.124-.74.124-.438.244-.878.36-1.318.116-.441.202-.861.313-1.303.1-.31.21-.645.284-.96.075-.314.14-.629.205-.938l.083-.396c.029-.132.057-.263.087-.394.101-.446.284-.883.299-1.34.015-.457.195-.894.291-1.341.093-.433.19-.865.287-1.295.097-.431.285-.828.387-1.256.102-.427.118-.886.223-1.312.105-.426.212-.851.32-1.276a85.759 85.759 0 00.264-1.11c.047-.208.095-.416.146-.629.05-.213.144-.404.203-.632l.032-.077.033-.078c.114-.174.167-.468.246-.764.079-.296.143-.62.2-.91.031-.156.062-.31.094-.46.031-.15.064-.292.099-.427l.166-.641.146-.65c.092-.172.162-.541.236-.834.074-.292.15-.592.222-.889l.036-.15.036-.147a18.15 18.15 0 01-1.463 1.111 9.908 9.908 0 01-1.568.875 9.128 9.128 0 01-1.657.553c-.697.16-2.021.408-2.76.403a10.918 10.918 0 01-2.267-.26 6.619 6.619 0 01-.882-.243 3.08 3.08 0 01-.846-.462 3.764 3.764 0 01-.618-.633c-.184-.23-.348-.474-.502-.701l-.045-.067-.045-.067a8.222 8.222 0 01-.458-.76 9.75 9.75 0 01-.397-.848 10.522 10.522 0 01-.525-1.63 7.547 7.547 0 01-.176-1.26c-.028-.453-.023-.937.013-1.439.038-.52.11-1.04.211-1.545.103-.505.237-.995.398-1.457a8.543 8.543 0 01.66-1.458c.251-.435.533-.82.845-1.149a4.398 4.398 0 011.23-.926c.443-.22.873-.309 1.376-.348.283-.021.302-.01.543.006.24.016.46.05.666.104.233.063.443.15.629.262a1.941 1.941 0 01.808.943c.08.2.133.418.16.655.021.205.023.427.003.665-.02.238-.058.38-.153.637-.064.172-.087.291-.164.496-.058.155-.122.297-.22.529l-.09.25-.175.351c-.09.272-.197.491-.296.822-.1.33-.204.62-.281.958-.099.435-.165.731-.183.987-.019.255.226.7.317.781.637.563 2.973-.728 3.228-.853.502-.247.852-.53 1.349-.838a18.16 18.16 0 001.412-.965c.47-.354.875-.771 1.313-1.168.446-.402.867-.82 1.261-1.25a17.31 17.31 0 001.1-1.328c.348-.468.662-.942.939-1.419.276-.476.516-.956.717-1.435l.179-.432c.06-.144.118-.288.177-.433l.037-.09.037-.091a82.221 82.221 0 01.442-1.062 26.73 26.73 0 01.478-1.061 17.596 17.596 0 01.548-1.045 6.506 6.506 0 01.674-.96 4.87 4.87 0 01.576-.58 3.496 3.496 0 01.686-.468 2.67 2.67 0 01.37-.158 3.543 3.543 0 011.052-.185 2.76 2.76 0 01.53.032 3.206 3.206 0 011.029.35 3.124 3.124 0 01.873.712c.128.148.246.31.351.483.116.19.2.38.255.57a1.911 1.911 0 01-.002 1.057 2.74 2.74 0 01-.195.499l-.027.06-.025.063a3.099 3.099 0 01-.152.34c-.064.119-.105.265-.217.373a1.9 1.9 0 00-.052.16c-.016.057-.072.088-.087.145a1.05 1.05 0 01-.107.226c-.044.077-.09.151-.11.208-.047.128-.074.226-.101.31a.953.953 0 01-.102.231c-.033.053-.063.1-.09.146a.98.98 0 00-.07.144 51.822 51.822 0 01-.383.97l-.193.476c-.065.16-.132.32-.2.484l-.151.367-.152.367c-.013.034-.03.068-.045.102l-.053.105-.02.038a1.202 1.202 0 00-.016.032l.013.046.012.047a8.1 8.1 0 00.041.31l.049.292.032.16a2.438 2.438 0 01.05.31c.024.14.044.271.043.42a1.906 1.906 0 01-.085.521c-.07.197-.132.372-.194.542l-.192.513c-.066.177-.134.353-.202.53-.067.176-.124.425-.193.601l-.217.45-.206.526-.204.521a67.21 67.21 0 00-.201.523l-.213.425-.106.409-.31.812a298.919 298.919 0 00-.765 2.043c-.15.41-.317.815-.444 1.233-.275.907-.48 1.367-.578 1.657-.097.29-.125.392-.164.532l-.077.274c-.138.446-.3.885-.417 1.301-.117.417-.19.812-.29 1.212-.11.448-.217.896-.32 1.345-.104.45-.146.915-.244 1.365-.097.453-.251.89-.346 1.344l-.28 1.36-.02.104-.022.103-.26 1.264c-.087.421-.176.843-.266 1.263-.055.263-.127.53-.206.796-.079.267-.164.533-.249.795-.068.213-.136.426-.2.634a12.2 12.2 0 00-.167.604c-.037.15-.064.296-.088.442a15.23 15.23 0 00-.064.444c-.026.19-.178.466-.213.666s-.08.407-.142.624c-.103.361-.084.64-.193 1a100.776 100.776 0 01-.675 2.151c-.116.357-.232.714-.35 1.07a9.398 9.398 0 01-.339.886c-.05.116-.097.231-.147.358-.05.126-.1.265-.154.43-.059.18-.122.362-.189.548-.066.186-.135.375-.204.565l-.112.308a30.02 30.02 0 00-.249.702c-.081.24-.159.483-.227.725-.074.258-.133.5-.179.728a6.131 6.131 0 00-.096.649 4.502 4.502 0 00-.017.662c.01.21.038.409.082.602.027.119.04.245.039.378-.002.133.07.127.04.27a2.833 2.833 0 01-.099.351c-.042.12-.091.241-.15.364a4.302 4.302 0 01-.843 1.188 2.267 2.267 0 01-1.107.595 2.39 2.39 0 01-.42.053l-.051.001-.051.001" fill="#000000" fill-rule="evenodd"/></svg>