<?xml version="1.0" encoding="UTF-8" standalone="no"?>
<svg width="114px" height="66px" viewBox="0 0 114 66" version="1.1" xmlns="http://www.w3.org/2000/svg" xmlns:xlink="http://www.w3.org/1999/xlink">
    <!-- Generator: Sketch 40.3 (33839) - http://www.bohemiancoding.com/sketch -->
    <title>Logo</title>
    <desc>Created with Sketch.</desc>
    <defs></defs>
    <g id="Symbols" stroke="none" stroke-width="1" fill="none" fill-rule="evenodd">
        <g id="Header-desktop" transform="translate(-170.000000, -23.000000)" fill="#171717">
            <g id="Logo" transform="translate(170.000000, 23.000000)">
                <path d="M108.652175,58.4188687 C108.652175,57.0598731 108.86632,55.6730577 110.443711,55.6730577 C112.002907,55.6730577 112.215652,56.9944967 112.215652,58.4188687 C112.215652,59.8446318 112.002907,61.1632888 110.443711,61.1632888 C108.86632,61.1632888 108.652175,59.7778644 108.652175,58.4188687 L108.652175,58.4188687 Z M108.652175,55.3503484 L108.652175,54.6103426 L107.368708,54.6103426 L107.368708,65.5518571 L108.652175,65.5518571 L108.652175,61.4832161 C109.310005,62.1898382 110.035017,62.3178092 110.669053,62.3178092 C111.429056,62.3178092 112.134473,62.0632583 112.561362,61.6417888 C113.403944,60.8044138 113.49912,59.4022975 113.49912,58.4188688 C113.49912,57.4382219 113.403944,56.0333237 112.561362,55.1973397 C112.134473,54.7730882 111.429056,54.5213193 110.669053,54.5213193 C109.997227,54.5213193 109.291809,54.6520722 108.652175,55.3503484 L108.652175,55.3503484 Z M104.148142,54.6103426 L104.148142,59.2798906 C104.148142,60.4775315 103.501509,61.1632888 102.373402,61.1632888 C101.26069,61.1632888 100.644849,60.4956144 100.644849,59.2798906 L100.644849,54.6103426 L99.3613817,54.6103426 L99.3613817,59.4468092 C99.3613817,60.3815533 99.6203147,61.0867844 100.149378,61.5972772 C100.625254,62.0674312 101.313876,62.3178092 102.14666,62.3178092 C102.931857,62.3178092 103.634475,62.0284836 104.162138,61.5165999 L104.162138,62.2287859 L105.431609,62.2287859 L105.431609,54.6103426 L104.148142,54.6103426 Z M93.4591106,60.6486231 C92.9496426,60.1409124 92.8810604,59.2771086 92.8810604,58.4188687 C92.8810604,57.5606289 92.9496426,56.6968251 93.4591106,56.1877234 C93.8006222,55.8524952 94.2457069,55.6730577 94.7453775,55.6730577 C95.2478473,55.6730577 95.7111273,55.8566682 96.0470403,56.1877234 C96.5677054,56.7079531 96.6096945,57.6148775 96.6096945,58.4188687 C96.6096945,59.227033 96.5677054,60.1297844 96.0470403,60.6486231 C95.7125269,60.9796783 95.2492469,61.1632888 94.7453775,61.1632888 C94.2429076,61.1632888 93.7978229,60.9838513 93.4591106,60.6486231 L93.4591106,60.6486231 Z M92.5339503,55.393469 C91.7081642,56.233626 91.5961932,57.3937103 91.5961932,58.4188687 C91.5961932,59.4454182 91.7081642,60.6041115 92.5339503,61.4456594 C93.1120006,62.0173557 93.874803,62.3178092 94.7453775,62.3178092 C95.6159519,62.3178092 96.3787544,62.0173557 96.9568046,61.4456594 C97.7839903,60.6068935 97.8959613,59.4454182 97.8959613,58.4188687 C97.8959613,57.3937103 97.7839903,56.233626 96.9568046,55.393469 C96.3815536,54.8217728 95.6159519,54.5213193 94.7453775,54.5213193 C93.874803,54.5213193 93.1092013,54.8217728 92.5339503,55.393469 L92.5339503,55.393469 Z M89.6492975,54.5213193 C88.8347085,54.5213193 88.1026982,54.8468106 87.6450167,55.3656493 L87.6450167,54.6103426 L86.3629488,54.6103426 L86.3629488,62.2287859 L87.6450167,62.2287859 L87.6450167,57.5731478 C87.6450167,56.4561842 88.3448354,55.6730577 89.3441766,55.6730577 C89.8844366,55.6730577 90.1713623,55.7940737 90.5688593,56.1877234 L90.6360419,56.2558818 L91.573799,55.3100097 L91.5094157,55.2404603 C90.9929495,54.7271856 90.4554887,54.5213193 89.6492975,54.5213193 L89.6492975,54.5213193 Z M83.7148348,61.0506187 L83.7162344,61.0478368 L83.7148348,61.0506187 Z M77.9259343,52.3416406 C76.8804051,53.3807089 76.8804051,54.43786 76.8804051,56.7580286 C76.8804051,59.0740243 76.8804051,60.1339574 77.9259343,61.1730257 C78.6691418,61.9116406 79.6754811,62.3178092 80.7588005,62.3178092 C81.9037039,62.3178092 82.9548316,61.8671289 83.7148348,61.0478368 C84.3838615,60.3412147 84.6679879,59.4913208 84.6679879,58.2074385 L84.6679879,56.4074996 L80.6636251,56.4074996 L80.6636251,57.6065315 L83.3229363,57.6065315 L83.3229363,58.3270635 C83.3229363,59.1602656 83.1479816,59.7236158 82.7364882,60.2160257 C82.2676097,60.779376 81.5467964,61.1020853 80.7588005,61.1020853 C80.0645803,61.1020853 79.4067507,60.8391885 78.9574671,60.3773804 C78.3122342,59.7194429 78.2268564,59.0545504 78.2268564,56.7580286 C78.2268564,54.4726347 78.3122342,53.8119153 78.9574671,53.1539778 C79.4179478,52.6824327 80.0743778,52.412581 80.7588005,52.412581 C82.0506659,52.412581 82.9982204,53.2026624 83.2963432,54.5268833 L83.3117392,54.6006057 L84.6553911,54.6006057 L84.6357962,54.4921086 C84.2984836,52.4890853 82.7742784,51.1954661 80.7588005,51.1954661 C79.6600851,51.1954661 78.6803389,51.5918978 77.9259343,52.3416406 L77.9259343,52.3416406 Z M65.2872082,51.2872714 L65.2872082,52.5016042 L68.4167975,52.5016042 L68.4167975,62.2287859 L69.7604495,62.2287859 L69.7604495,52.5016042 L72.8914384,52.5016042 L72.8914384,51.2872714 L65.2872082,51.2872714 Z M61.4466031,52.5016042 C62.8448409,52.5016042 63.6454335,53.244392 63.6454335,54.5394022 C63.6454335,55.8205025 62.8238463,56.5869371 61.4466031,56.5869371 L58.7760948,56.5869371 L58.7760948,52.5016042 L61.4466031,52.5016042 Z M57.4310432,51.2872714 L57.4310432,62.2287859 L58.7760948,62.2287859 L58.7760948,57.8026609 L61.5529755,57.8026609 C63.6090429,57.8026609 64.9904851,56.4923499 64.9904851,54.5394022 C64.9904851,52.5934094 63.6090429,51.2872714 61.5529755,51.2872714 L57.4310432,51.2872714 Z M54.5855803,61.0506187 L54.5855803,61.0478368 L54.5855803,61.0506187 Z M48.7966799,52.3416406 C47.7511507,53.3807089 47.7511507,54.43786 47.7511507,56.7580286 C47.7511507,59.0740243 47.7511507,60.1339574 48.7966799,61.1730257 C49.5398873,61.9116406 50.544827,62.3178092 51.629546,62.3178092 C52.7758491,62.3178092 53.8255772,61.8671289 54.5855803,61.0478368 C55.2532074,60.3412147 55.5373338,59.4913208 55.5373338,58.2074385 L55.5373338,56.4074996 L51.5343707,56.4074996 L51.5343707,57.6065315 L54.1936818,57.6065315 L54.1936818,58.3270635 C54.1936818,59.1602656 54.0187272,59.7236158 53.6072338,60.2160257 C53.1397548,60.779376 52.4189416,61.1020853 51.629546,61.1020853 C50.9339262,61.1020853 50.2774963,60.8391885 49.8282127,60.3773804 C49.1815802,59.7194429 49.0962023,59.0545504 49.0962023,56.7580286 C49.0962023,54.4726347 49.1815802,53.8119153 49.8282127,53.1539778 C50.2886934,52.6824327 50.9437237,52.412581 51.629546,52.412581 C52.9214114,52.412581 53.868966,53.2026624 54.1656891,54.5268833 L54.1824847,54.6006057 L55.524737,54.6006057 L55.5065418,54.4921086 C55.1664299,52.4890853 53.6464236,51.1954661 51.629546,51.1954661 C50.5308307,51.1954661 49.5496848,51.5918978 48.7966799,52.3416406 L48.7966799,52.3416406 Z M38.4365635,56.6884792 C38.7136917,56.0347147 39.3491271,55.6285461 40.0965335,55.6285461 C40.8425403,55.6285461 41.4793753,56.0347147 41.7565035,56.6884792 C41.9048651,57.0543092 41.9412557,57.2782583 41.9706481,57.7970969 L38.222419,57.7970969 C38.2518114,57.2782583 38.2868023,57.0543092 38.4365635,56.6884792 L38.4365635,56.6884792 Z M36.9319533,58.4188687 C36.9319533,60.9351667 38.125844,62.3178092 40.2938824,62.3178092 C41.6431329,62.3178092 42.3667455,61.8685199 43.0959566,61.142424 L43.1673381,61.0728746 L42.2799679,60.2967031 L42.2183839,60.3620795 C41.608142,60.9643775 41.1126703,61.1799807 40.3246744,61.1799807 C38.9936192,61.1799807 38.2518114,60.3328687 38.222419,58.8027815 L43.2625134,58.8027815 L43.2625134,58.2074385 C43.2625134,55.9317815 42.0476281,54.5213193 40.0965335,54.5213193 C38.1146469,54.5213193 36.9319533,55.9790751 36.9319533,58.4188687 L36.9319533,58.4188687 Z M29.4103016,51.2872714 L29.4103016,62.2287859 L30.6923695,62.2287859 L30.6923695,57.5453281 C30.6923695,56.356033 31.3404017,55.6730577 32.4685095,55.6730577 C33.5840205,55.6730577 34.1956621,56.3393411 34.1956621,57.5453281 L34.1956621,62.2287859 L35.4791296,62.2287859 L35.4791296,57.3617176 C35.4791296,55.6076812 34.4140055,54.5213193 32.6952507,54.5213193 C31.8890596,54.5213193 31.2228321,54.7925621 30.6923695,55.3030548 L30.6923695,51.2872714 L29.4103016,51.2872714 Z M20.7787375,51.2872714 L20.7787375,52.5016042 L23.9097265,52.5016042 L23.9097265,62.2287859 L25.2547781,62.2287859 L25.2547781,52.5016042 L28.3843674,52.5016042 L28.3843674,51.2872714 L20.7787375,51.2872714 Z" id="Fill-1"></path>
                <path d="M20.7791574,27.7566166 C20.7791574,22.9730076 24.6813466,19.093541 29.4960994,19.093541 L57.7925696,19.093541 C60.6926184,19.093541 61.9690877,16.8776965 61.9690877,14.5088433 L61.9690877,11.1050948 C61.9690877,8.22157587 59.7254689,6.8305875 57.7925696,6.8305875 L52.4991408,6.8305875 L52.4991408,16.0166747 L39.735847,16.0166747 L39.735847,0.000834593023 L104.179354,0.000834593023 L104.179354,6.8305875 L92.7597118,6.8305875 L92.7597118,44.9436689 L79.9950183,44.9436689 L79.9950183,6.8305875 L73.8044219,6.8305875 L73.8044219,13.4363913 C73.8044219,20.5387779 69.2695966,24.9843767 59.2132016,24.9843767 L52.4991408,24.9843767 L52.4991408,44.9436689 L39.735847,44.9436689 L39.735847,24.9843767 L36.3025363,24.9843767 C34.7783311,24.9843767 33.5438509,26.2112285 33.5438509,27.7260148 L33.5438509,44.9436689 L13.2924968,44.9436689 C4.70432141,44.9436689 0.00153960119,37.8162445 0.00153960119,30.8835584 L0.00153960119,15.5256558 C0.00153960119,9.18553081 1.81546973,0.0634290698 18.0596619,0.000834593023 L33.0413811,0.000834593023 L33.0413811,6.8305875 L17.5124036,6.8305875 C13.9027387,6.8305875 12.7662331,10.1369669 12.7662331,11.5460381 L12.7662331,34.1259523 C12.7662331,35.4070526 13.4324605,39.1362924 16.9133588,39.1362924 L20.7791574,39.1362924 L20.7791574,27.7566166 Z" id="Fill-3"></path>
            </g>
        </g>
    </g>
</svg>