<svg xmlns="http://www.w3.org/2000/svg" viewBox="0 0 153.32 49.63"><g id="Layer_2" data-name="Layer 2"><g id="Layer_1-2" data-name="Layer 1"><path d="M28,11.9a17.93,17.93,0,0,0-3.25-1.2,7.28,7.28,0,0,1,3.58-1.56A1.06,1.06,0,0,1,29.7,10.4c-.11,1,.79,1.82.29,2.86-.34.69-.64,1.18-1.29.32a2.21,2.21,0,0,0-.86-.64c-.9-.41-.16-.72.16-1"/><path d="M12.13,15.24a6.26,6.26,0,0,0,3.76,2.46c.45.14.77-.16.93-.64a.75.75,0,0,0-.43-.95c-1.3-.53-2.55-1.39-4.26-.87"/><path d="M28,11.9a17.93,17.93,0,0,0-3.25-1.2,7.28,7.28,0,0,1,3.58-1.56A1.06,1.06,0,0,1,29.7,10.4c-.11,1,.79,1.82.29,2.86-.34.69-.64,1.18-1.29.32a2.21,2.21,0,0,0-.86-.64c-.9-.41-.16-.72.16-1"/><path d="M10.27,11.9a17.93,17.93,0,0,1,3.25-1.2A7.24,7.24,0,0,0,9.94,9.14,1.06,1.06,0,0,0,8.57,10.4c.12,1-.79,1.82-.29,2.86.34.69.64,1.18,1.29.32a2.17,2.17,0,0,1,.87-.64c.89-.41.15-.72-.17-1"/><path d="M26.09,15.24a6.21,6.21,0,0,1-3.75,2.46c-.45.14-.78-.16-.93-.64a.73.73,0,0,1,.43-.95c1.3-.53,2.55-1.39,4.25-.87"/><path d="M28,11.9a17.83,17.83,0,0,0-3.24-1.2,7.24,7.24,0,0,1,3.58-1.56,1.05,1.05,0,0,1,1.36,1.26c-.11,1,.8,1.82.29,2.86-.34.69-.63,1.18-1.28.32a2.17,2.17,0,0,0-.87-.64c-.9-.41-.15-.72.16-1"/><path d="M23.14,39.29A14.94,14.94,0,0,1,18.73,47a.18.18,0,0,1-.28,0,20.79,20.79,0,0,0-2.61-3.64,7.12,7.12,0,0,1-1.71-4.05.18.18,0,0,0-.34-.07c-.8,1.5-.08,3.31,1.05,5s2.72,3.54,3,5.26a.19.19,0,0,0,.3.11A18.84,18.84,0,0,0,22.52,45a8.3,8.3,0,0,0,1-5.7.18.18,0,0,0-.36,0"/><path d="M9.09,37l-.31-.27.16.75c-4.13-4.19-5.1-7-4.75-10.28A56.4,56.4,0,0,1,5.6,18.36a.22.22,0,0,0-.4-.16,20.72,20.72,0,0,0-1.72,5C2.7,27.07,2,29.91,2.24,30.76s3,6.87,7,9.32Z"/><path d="M8.56,31a.2.2,0,0,0-.39,0,26.62,26.62,0,0,0,.68,9.35c.4,1.56,4.49,5.15,7.63,6a.19.19,0,0,0,.23-.26l-.55-1.31s-.38-.8-.41-.82c-.48-.32-4.36-2.94-5.28-4.14S9.36,36.39,8.56,31"/><path d="M37.73,20c1.23-1.41.23-4.26-.62-6.46a24.12,24.12,0,0,0-2.25-4,9.19,9.19,0,0,1-.69-1.26.85.85,0,0,0,.44-.47c.15-.49-.31-1.72-3.07-3.41h0c-.69-.4-1.89-1.1-2.2-1.35l-.06-.05A1.6,1.6,0,0,1,29,2.24c-.17-.85-.73-1.06-1.64-1.4A8.72,8.72,0,0,0,22.53.12a14.56,14.56,0,0,1-3.39.31A14.72,14.72,0,0,1,15.72.12a8.7,8.7,0,0,0-4.85.72c-.9.34-1.46.55-1.63,1.4A1.47,1.47,0,0,1,9,2.92L8.94,3c-.3.25-1.5.95-2.19,1.35h0C4,6,3.53,7.25,3.68,7.74a.85.85,0,0,0,.44.47,9.19,9.19,0,0,1-.69,1.26,23.38,23.38,0,0,0-2.24,4c-.85,2.2-1.84,5-.61,6.46.14.17.05.56,0,.83A21,21,0,0,0,3.28,31.63l0-4.32C1.67,22.94.75,18.88,5.15,13.84c.17-.2.36-.4.54-.6l.41-.39a.74.74,0,0,0-1-.11,9.73,9.73,0,0,0-3.36,4.85c.15-3.79,3.1-8.65,5.93-10.18a.15.15,0,0,0,0-.27c-.83-.14-1.57.68-2.31.22-.29-.16,1-1.26,1.35-1.47,2.76-2,5.7-2.71,8.91-1.56.11,0,.77.14.59-.1-1.71-1.51-3.61-1.44-5.45-1.67a7.58,7.58,0,0,1,6.16-.84,7.84,7.84,0,0,0,2.24.4,7.71,7.71,0,0,0,2.21-.4,7.63,7.63,0,0,1,6.18.84c-1.85.23-3.75.16-5.47,1.67-.18.24.48.13.59.1,3.23-1.15,6.17-.42,8.94,1.56.3.21,1.65,1.31,1.36,1.47-.75.46-1.49-.36-2.32-.22a.14.14,0,0,0,0,.27c2.84,1.53,5.79,6.39,5.94,10.18a9.62,9.62,0,0,0-3.37-4.85.74.74,0,0,0-1,.11l.42.39c.17.2.36.4.54.6,4.41,5,3.48,9.1,1.83,13.47l0,4.32A20.94,20.94,0,0,0,37.69,20.8c0-.27-.11-.66,0-.83"/><path d="M29.19,37l.3-.27-.15.75c4.14-4.19,5.11-7,4.76-10.28a55.36,55.36,0,0,0-1.42-8.79.22.22,0,0,1,.41-.16,20.72,20.72,0,0,1,1.72,5c.79,3.87,1.36,6.71,1.11,7.56S33.08,37.63,29,40.08Z"/><path d="M29.71,31a.2.2,0,0,1,.39,0,26.14,26.14,0,0,1-.68,9.35c-.4,1.56-4.5,5.15-7.65,6a.19.19,0,0,1-.23-.26l.55-1.31s.38-.8.41-.82c.48-.32,4.37-2.94,5.3-4.14s1.12-3.39,1.91-8.81"/><path d="M17.65,10.52a.32.32,0,0,0,0-.35l-.17-.36-.06-.09a3.5,3.5,0,0,0-.24-.42,2.12,2.12,0,0,0-2.07-1A7.16,7.16,0,0,1,13,8a.76.76,0,0,0-.55,0,1,1,0,0,0-.18.18c-.16.27.16.43.26.46,1.62.53,3,1.78,4.76,1.92a.58.58,0,0,0,.41-.1"/><path d="M21,10.52a.32.32,0,0,1,0-.35c0-.12.11-.24.17-.36l.05-.09c.08-.15.16-.28.24-.42a2.13,2.13,0,0,1,2.07-1A7.09,7.09,0,0,0,25.74,8a.79.79,0,0,1,.56,0,.94.94,0,0,1,.17.18c.17.27-.16.43-.26.46-1.62.53-3,1.78-4.75,1.92a.59.59,0,0,1-.42-.1"/><path d="M30.7,17.87a5,5,0,0,0-1.76-2.28.11.11,0,0,0-.16.14c.16.48.28.89.44,1.3,1.16,2.9.12,3.24-1,5.86C27.7,23.94,27,25,25.9,23.4a.3.3,0,0,0-.47,0,10.4,10.4,0,0,1,.07,3.37c-.17.54-1,1.16-1.65,1.64s-1-.4-1.46-.6-.93-.46-1.4-.68A2.38,2.38,0,0,1,19.8,26c-.35-.84,0-1.52.83-2.09.64-.43,1.32-.91,2-1.35.25-.17.52-.41.39-.69s-1.32-.06-1.61,0c-.6,0-1.14.09-1.43.11l-.8,0h0l-.8,0c-.29,0-.83-.08-1.43-.11-.28,0-1.45-.28-1.61,0s.14.52.39.69c.64.44,1.32.92,2,1.35A1.63,1.63,0,0,1,18.48,26a2.44,2.44,0,0,1-1.2,1.13c-.47.22-.92.49-1.4.68s-.89,1-1.46.6-1.48-1.1-1.65-1.64a10.4,10.4,0,0,1,.07-3.37.3.3,0,0,0-.47,0c-1.11,1.55-1.8.54-2.27-.51-1.17-2.62-2.2-3-1-5.86.16-.41.29-.82.44-1.3a.11.11,0,0,0-.16-.14A5.17,5.17,0,0,0,7.48,18.1,8.21,8.21,0,0,0,8,22.77a51.27,51.27,0,0,1,3.16,8.72c0,.07.1.12.16.08.87-.44.49-1.3.69-2,.21.09.26.26.46.61.59,1.37,1.12,2.63,1.68,3.86.15.33.25,1.17.68.85.73-.55,1-.14,1.33.26h0l.16.2a19.7,19.7,0,0,1,1.61,2.3,5.9,5.9,0,0,1,.4,1.29.11.11,0,0,0,.17.07,13.54,13.54,0,0,0,1.85-1.39c.51-.53,1.74-2.42,2-2.72s.55-.44,1.12,0,.53-.52.69-.85c.55-1.23,1.08-2.49,1.67-3.86.2-.35.25-.52.46-.61.2.69-.18,1.55.69,2,.06,0,.14,0,.16-.08a50.09,50.09,0,0,1,3.12-8.62c.37-.92,1.15-3.26.45-5M21.78,33.16c-1.3.46-1.85,1.41-2.63,2.35h0c-.78-.94-1.33-1.89-2.63-2.35-1-.36-1.32-1.75-1.06-3a2.64,2.64,0,0,1,1.07-1.6,4.47,4.47,0,0,1,5.27,0,2.64,2.64,0,0,1,1.07,1.6c.26,1.23-.07,2.62-1.06,3"/><path d="M46.2,22.09a21.73,21.73,0,0,0,6.62,1.06c2.57,0,3.94-.62,3.94-1.61s-1.16-1.39-4.26-2c-4.19-.75-7.25-2-7.25-4.47s3.7-4.49,9.47-4.49a24.45,24.45,0,0,1,6.83.82l-1.33,2.77a20.23,20.23,0,0,0-5.6-.77c-2.43,0-3.63.64-3.63,1.39,0,1,1.51,1.36,4.79,2,4.54.92,6.76,2.24,6.76,4.51S59.55,26,52.4,26A25.56,25.56,0,0,1,45,25Z"/><rect x="120.78" y="10.89" width="5.6" height="14.83"/><path d="M152.83,25.26a27.31,27.31,0,0,1-6.9.72c-9,0-13.63-3.23-13.63-7.48,0-4.86,6.09-7.88,14.08-7.88a24.17,24.17,0,0,1,6.73.75l-1.2,2.73a20.82,20.82,0,0,0-5.28-.64c-4.79,0-8.42,1.67-8.42,4.84,0,2.78,3,4.82,8.46,4.82a22.81,22.81,0,0,0,5.24-.57Z"/><path d="M67.94,33.17c0,1.81-2,3-5.08,3S58,35,58,33.27s2-3.07,5-3.07,4.93,1.27,4.93,3m-7.61.06c0,1.08,1,1.92,2.65,1.92s2.63-.83,2.63-1.94-1-1.94-2.63-1.94-2.65.87-2.65,2"/><polygon points="71.91 31.42 69.11 31.42 69.11 30.3 76.97 30.3 76.97 31.42 74.12 31.42 74.12 36.12 71.91 36.12 71.91 31.42"/><path d="M88.08,33.17c0,1.81-2,3-5.09,3S78.13,35,78.13,33.27s2.05-3.07,5-3.07,4.93,1.27,4.93,3m-7.61.06c0,1.08,1,1.92,2.65,1.92s2.62-.83,2.62-1.94-1-1.94-2.62-1.94-2.65.87-2.65,2"/><path d="M90.38,30.38c.72-.07,1.81-.13,3.06-.13a7.81,7.81,0,0,1,3.2.46,1.4,1.4,0,0,1,.91,1.23c0,.78-1,1.28-1.71,1.43v0a2.35,2.35,0,0,1,1.47,1.1,4.34,4.34,0,0,1,.33,1.63h-2a2.84,2.84,0,0,0-.39-1.45c-.41-.67-1-.81-2-.82h-.75v2.27H90.38Zm2.18,2.48h1c1.11,0,1.81-.31,1.81-.81s-.68-.79-1.69-.79a7.63,7.63,0,0,0-1.12,0Z"/><path d="M107.54,35.94a10.53,10.53,0,0,1-2.71.29c-3.51,0-5.34-1.27-5.34-2.94,0-1.91,2.39-3.09,5.52-3.09a9.35,9.35,0,0,1,2.64.29l-.47,1.07a8.13,8.13,0,0,0-2.07-.25c-1.88,0-3.3.66-3.3,1.9,0,1.09,1.17,1.89,3.31,1.89a9,9,0,0,0,2.06-.22Z"/><path d="M127,35.94a10.5,10.5,0,0,1-2.7.29c-3.51,0-5.35-1.27-5.35-2.94,0-1.91,2.39-3.09,5.52-3.09a9.29,9.29,0,0,1,2.64.29l-.47,1.07a8.13,8.13,0,0,0-2.07-.25c-1.88,0-3.3.66-3.3,1.9,0,1.09,1.17,1.89,3.32,1.89a8.85,8.85,0,0,0,2.05-.22Z"/><polygon points="129.4 30.3 131.59 30.3 131.59 34.97 135.75 34.97 135.75 36.12 129.4 36.12 129.4 30.3"/><path d="M146.91,34.7a8.78,8.78,0,0,0,2.6.41c1,0,1.54-.24,1.54-.63s-.45-.54-1.67-.77c-1.64-.29-2.84-.79-2.84-1.75s1.45-1.76,3.71-1.76a9.21,9.21,0,0,1,2.68.32l-.52,1.08a8.08,8.08,0,0,0-2.2-.3c-1,0-1.42.25-1.42.55s.59.53,1.88.78c1.78.36,2.65.88,2.65,1.77s-1.18,1.83-4,1.83a10,10,0,0,1-2.92-.41Z"/><polygon points="81.54 10.89 78.46 10.89 75.37 10.89 66.53 25.72 72.52 25.72 78.46 15.46 84.39 25.72 90.38 25.72 81.54 10.89"/><polygon points="100.49 25.72 103.57 25.72 106.65 25.72 115.49 10.89 109.5 10.89 103.57 21.15 97.63 10.89 91.65 10.89 100.49 25.72"/><polygon points="55.28 30.3 52.13 30.3 50.31 34.29 48.49 30.3 45.34 30.3 44.77 36.12 46.87 36.12 47.22 31.27 49.28 36.03 50.31 36.03 51.35 36.03 53.41 31.27 53.76 36.12 55.86 36.12 55.28 30.3"/><polygon points="115.88 30.3 113.7 32.54 111.59 30.3 109.39 30.3 112.72 33.95 112.72 36.12 113.7 36.12 114.68 36.12 114.68 33.95 118.08 30.3 115.88 30.3"/><polygon points="144.2 35.01 140.09 35.01 140.09 33.69 143.96 33.69 143.96 32.58 140.09 32.58 140.09 31.41 144.2 31.41 144.2 31.07 144.2 30.3 137.9 30.3 137.9 36.12 144.2 36.12 144.2 35.01"/></g></g></svg>